<?xml version="1.0" standalone="no"?>
<!DOCTYPE svg PUBLIC "-//W3C//DTD SVG 20010904//EN"
 "http://www.w3.org/TR/2001/REC-SVG-20010904/DTD/svg10.dtd">
<svg version="1.0" xmlns="http://www.w3.org/2000/svg"
 width="700.000000pt" height="700.000000pt" viewBox="0 0 700.000000 700.000000"
 preserveAspectRatio="xMidYMid meet">
<metadata>
Created by potrace 1.14, written by Peter Selinger 2001-2017
</metadata>
<g transform="translate(0.000000,700.000000) scale(0.100000,-0.100000)"
fill="#000000" stroke="none">
<path d="M3410 6989 c-14 -4 -63 -7 -108 -8 -114 -1 -393 -37 -517 -65 -199
-46 -463 -124 -530 -156 -11 -5 -44 -19 -74 -30 -108 -42 -326 -148 -402 -196
-21 -13 -42 -24 -45 -24 -15 0 -305 -200 -399 -274 -213 -169 -454 -414 -606
-616 -76 -101 -239 -343 -239 -355 0 -4 -9 -20 -20 -35 -30 -43 -153 -293
-199 -405 -77 -190 -152 -438 -191 -630 -6 -33 -16 -80 -21 -105 -58 -289 -58
-926 1 -1185 5 -22 14 -69 21 -105 35 -188 133 -508 206 -670 47 -104 136
-283 168 -340 21 -36 46 -81 57 -100 34 -59 137 -210 211 -308 363 -482 890
-887 1447 -1112 58 -23 114 -46 125 -51 96 -41 352 -111 580 -158 218 -46 666
-73 850 -52 226 26 362 43 405 52 25 5 65 14 90 19 176 35 413 105 545 160 11
5 65 27 120 50 102 42 333 159 402 203 318 203 468 321 683 536 146 147 278
301 398 468 29 40 52 77 52 82 0 5 4 11 8 13 27 11 217 367 292 548 29 69 56
134 61 145 16 39 68 202 93 296 55 203 75 319 116 680 13 111 13 367 0 478
-31 272 -43 360 -50 391 -5 19 -14 62 -21 95 -11 59 -29 131 -51 210 -15 56
-77 246 -87 270 -5 11 -15 36 -21 55 -17 47 -31 81 -71 170 -235 524 -617
1004 -1074 1349 -95 72 -299 211 -309 211 -3 0 -29 15 -58 33 -99 62 -354 185
-478 229 -30 11 -64 23 -75 28 -24 11 -152 52 -215 70 -25 7 -65 18 -90 26
-43 12 -152 37 -250 55 -210 40 -667 76 -730 58z m181 -520 c75 -57 104 -199
60 -295 -65 -144 -264 -152 -341 -14 -47 85 -28 233 36 292 43 38 78 49 145
46 53 -3 73 -9 100 -29z m231 9 c14 -12 14 -29 -7 -188 -12 -96 -19 -178 -16
-182 4 -4 42 -11 86 -15 67 -7 80 -11 83 -27 2 -10 -1 -22 -7 -25 -12 -8 -218
13 -228 23 -4 3 1 70 11 149 10 78 20 165 23 192 6 52 18 85 31 85 5 0 15 -6
24 -12z m-657 -33 c0 -17 -8 -21 -56 -25 -59 -5 -99 -29 -99 -59 0 -30 30 -60
73 -72 83 -22 114 -40 136 -79 25 -45 26 -61 5 -102 -23 -44 -51 -65 -107 -78
-81 -20 -150 6 -118 44 9 11 19 12 44 4 23 -7 43 -6 72 4 85 28 82 110 -5 137
-96 29 -134 53 -149 97 -13 37 -12 44 5 79 26 52 73 76 144 73 47 -3 55 -6 55
-23z m982 -16 c11 -11 12 -8 -40 -254 -33 -162 -41 -178 -77 -156 -12 9 -9 36
23 198 21 103 41 196 43 206 6 19 34 23 51 6z m248 -57 c103 -29 175 -109 175
-195 0 -104 -86 -219 -173 -232 -77 -12 -229 26 -235 58 -4 18 105 365 120
383 9 12 27 9 113 -14z m-1652 -190 c37 -103 67 -192 67 -197 0 -6 -8 -15 -19
-22 -14 -9 -24 -8 -44 5 -39 26 -196 150 -245 195 -24 21 -45 37 -47 35 -4 -4
31 -100 86 -242 10 -27 19 -55 19 -62 0 -15 -39 -29 -49 -17 -5 4 -27 64 -51
133 -23 69 -53 152 -65 186 -24 65 -23 77 11 88 21 6 118 -62 273 -193 62 -53
63 -61 -7 124 -27 72 -47 136 -44 143 2 6 14 12 26 12 19 0 30 -22 89 -188z
m2119 104 c22 -17 38 -101 17 -94 -15 5 -43 49 -54 86 -7 25 10 29 37 8z m6
-113 c19 -17 20 -21 7 -113 -7 -52 -21 -149 -30 -215 -9 -65 -18 -121 -20
-124 -3 -2 -16 2 -30 9 -23 12 -24 17 -18 69 3 31 7 62 7 69 1 7 -27 28 -62
47 l-63 35 -52 -49 c-44 -41 -56 -47 -74 -40 -13 5 -23 13 -23 18 0 13 312
311 326 311 7 0 21 -8 32 -17z m-2611 -34 c91 -44 158 -179 134 -269 -24 -90
-101 -150 -192 -150 -89 0 -185 91 -208 199 -15 73 3 133 56 182 66 62 135 74
210 38z m2979 -190 c79 -81 36 -199 -72 -199 -23 0 -25 -3 -20 -28 4 -17 -2
-53 -17 -95 -30 -85 -40 -96 -66 -73 -19 17 -19 18 5 79 13 33 24 73 24 87 0
26 -45 80 -67 80 -6 0 -34 -32 -62 -70 -45 -62 -54 -69 -71 -60 -11 6 -20 16
-20 21 0 6 52 87 116 180 l116 169 49 -28 c27 -15 66 -43 85 -63z m-3270 -167
c108 -152 111 -158 94 -176 -10 -10 -22 -16 -28 -12 -8 5 -210 282 -235 324
-6 8 -2 21 9 33 23 26 21 27 160 -169z m-261 43 c0 -11 -10 -25 -23 -31 -67
-34 -90 -86 -52 -124 24 -24 28 -24 112 -3 86 22 133 12 165 -36 47 -70 20
-149 -70 -205 -38 -23 -52 -28 -65 -19 -28 17 -20 33 28 57 29 14 52 35 65 59
l20 36 -21 28 c-26 35 -52 39 -127 18 -35 -10 -73 -14 -93 -11 -79 15 -112
121 -57 187 52 62 118 87 118 44z m3728 -26 c8 -12 -18 -49 -123 -176 -131
-160 -149 -173 -169 -134 -6 12 23 54 123 174 72 86 137 156 145 155 8 -2 18
-10 24 -19z m221 -200 c14 -20 8 -35 -85 -220 -74 -148 -103 -197 -114 -193
-26 10 -26 42 0 93 14 28 25 56 25 64 0 7 -22 34 -49 61 l-49 48 -62 -33 -62
-33 -20 24 -20 25 174 82 c95 46 180 87 188 92 26 17 58 12 74 -10z m-4300
-82 c6 -8 75 -71 153 -141 128 -115 141 -130 130 -147 -16 -25 -33 -24 -61 4
-12 12 -80 73 -149 136 -70 62 -127 119 -127 125 0 14 20 36 33 36 6 0 15 -6
21 -13z m276 -47 c16 -16 18 -25 10 -40 -14 -26 -56 -26 -70 -1 -13 25 -13 27
6 45 20 21 30 20 54 -4z m-366 -46 c24 -9 20 -22 -19 -70 -19 -23 -35 -45 -35
-48 0 -4 239 -187 283 -217 14 -10 -2 -49 -20 -49 -9 0 -78 47 -155 105 -76
58 -142 105 -146 105 -4 0 -22 -21 -41 -45 -34 -46 -57 -56 -67 -30 -6 14 162
253 178 254 3 1 13 -2 22 -5z m2539 -256 c26 -63 147 -425 147 -441 0 -9 4
-18 9 -21 5 -4 23 36 39 86 31 97 62 182 116 320 l32 83 49 0 50 0 6 -40 c8
-46 33 -453 34 -535 l0 -55 -40 0 c-37 0 -40 2 -42 30 -1 17 -7 133 -14 259
-11 201 -14 224 -25 195 -6 -19 -47 -132 -89 -251 -43 -120 -84 -223 -91 -229
-8 -6 -25 -9 -38 -5 -21 5 -32 30 -96 228 -41 123 -79 239 -86 258 l-13 35 0
-50 c-1 -73 -22 -426 -27 -453 -4 -20 -10 -23 -42 -20 l-37 3 1 55 c2 81 34
531 39 558 5 19 12 22 55 22 47 0 51 -2 63 -32z m-2613 -159 c179 -101 201
-120 168 -147 -15 -12 -141 -22 -291 -24 -127 -2 -127 -2 17 -78 149 -79 156
-84 156 -101 0 -27 -23 -40 -46 -25 -10 7 -44 26 -74 43 -112 61 -245 136
-257 145 -17 14 5 57 31 63 12 2 100 8 196 12 l175 8 -127 68 c-167 90 -164
88 -147 115 8 12 15 22 16 22 1 0 83 -46 183 -101z m2415 -64 c0 -15 -7 -20
-29 -21 -33 -1 -56 -26 -56 -61 0 -21 10 -28 34 -24 4 1 14 -4 22 -10 19 -16
0 -39 -32 -39 -23 0 -23 -2 -26 -112 -3 -109 -4 -113 -25 -116 -23 -3 -23 -2
-23 111 0 106 -1 115 -20 120 -25 6 -26 33 -1 46 11 6 21 26 25 50 8 52 46 83
95 79 28 -2 36 -7 36 -23z m-2628 -291 c146 -50 209 -169 151 -284 -13 -24
-40 -58 -61 -74 -35 -28 -45 -31 -111 -31 -61 1 -80 5 -126 31 -95 53 -136
138 -111 230 21 78 103 142 183 144 15 0 49 -7 75 -16z m4454 -400 c197 -27
480 -124 512 -175 7 -12 -7 -57 -52 -170 -35 -85 -64 -155 -65 -156 -1 -2 -45
19 -97 45 -175 90 -326 125 -534 126 -159 1 -215 -10 -321 -61 -159 -76 -254
-229 -254 -408 0 -131 38 -224 132 -322 93 -96 224 -176 503 -306 277 -128
474 -277 581 -439 199 -299 170 -743 -67 -1028 -130 -157 -307 -257 -559 -317
-61 -15 -118 -18 -305 -18 -262 0 -339 12 -560 87 -160 54 -325 137 -325 164
0 6 9 33 19 60 11 27 37 96 58 153 21 57 43 105 50 108 7 3 33 -9 58 -27 111
-77 308 -151 490 -186 124 -24 336 -24 430 0 225 57 367 196 411 398 39 183
-20 376 -151 497 -67 61 -199 145 -322 202 -414 194 -556 288 -701 466 -197
242 -218 612 -51 889 133 219 371 371 658 419 107 18 330 18 462 -1z m-4636
-54 c271 -27 255 -24 255 -54 0 -23 -23 -41 -39 -31 -4 2 -66 11 -138 19 -71
9 -137 18 -147 22 -11 4 -15 2 -11 -7 3 -8 32 -27 63 -42 88 -43 235 -131 239
-144 8 -23 -28 -39 -118 -52 -52 -8 -128 -19 -169 -26 l-75 -11 60 -14 c33 -7
107 -25 165 -39 99 -25 105 -27 102 -50 -1 -14 -4 -26 -5 -28 -2 -1 -85 17
-185 42 -100 25 -188 45 -196 45 -24 0 -36 24 -27 56 8 32 -3 28 178 58 51 9
109 16 128 16 24 0 35 5 35 15 0 8 -5 15 -12 15 -12 0 -213 110 -260 142 -19
13 -25 24 -21 41 11 48 12 49 51 43 20 -4 78 -10 127 -16z m73 -655 c146 -62
164 -257 30 -338 -94 -58 -223 -46 -293 27 -56 58 -71 111 -51 179 19 64 50
101 107 127 54 24 154 27 207 5z m-371 -137 c32 -31 44 -68 22 -68 -6 0 -24 9
-40 21 -21 14 -29 29 -29 50 0 37 6 36 47 -3z m518 -299 c4 -12 2 -26 -4 -32
-6 -6 -100 -26 -208 -44 -205 -34 -212 -33 -213 10 0 9 3 17 8 18 4 0 93 15
197 33 105 19 195 34 202 35 6 0 15 -8 18 -20z m32 -159 c41 -100 26 -189 -42
-249 -50 -44 -98 -61 -168 -61 -101 0 -168 52 -202 158 -21 63 -17 107 9 107
16 0 22 -11 31 -56 21 -109 73 -153 170 -146 109 8 169 65 168 157 0 26 -8 63
-18 83 -9 20 -14 44 -11 53 12 30 41 9 63 -46z m78 -291 c6 -17 -4 -32 -43
-73 l-51 -51 30 -64 29 -64 65 6 c58 6 66 4 80 -15 8 -12 11 -25 7 -29 -7 -7
-162 -23 -343 -35 -91 -6 -98 -5 -108 14 -6 11 -11 27 -11 35 0 7 55 63 123
123 67 60 138 123 157 141 41 38 56 41 65 12z m181 -430 c55 -37 145 -172 127
-189 -4 -5 -83 -56 -175 -114 l-168 -105 -21 22 c-34 36 -89 135 -98 179 -23
101 62 212 184 242 41 9 110 -6 151 -35z m208 -270 c8 -12 13 -26 11 -33 -2
-6 -22 -72 -45 -146 -22 -74 -47 -150 -55 -168 -8 -18 -15 -37 -15 -43 0 -5
57 40 126 101 123 109 127 111 146 93 19 -17 19 -18 -29 -63 -26 -25 -77 -70
-113 -100 -35 -30 -83 -72 -106 -92 -48 -44 -66 -47 -83 -15 -11 20 -6 45 39
188 28 90 54 173 57 184 4 13 -13 3 -48 -31 -131 -123 -190 -168 -207 -158 -9
6 -17 15 -19 21 -2 6 64 68 147 139 82 71 150 132 150 137 0 15 30 6 44 -14z
m342 -354 c50 -29 84 -80 84 -124 0 -60 -27 -105 -152 -246 -14 -16 -35 -41
-46 -54 -12 -16 -25 -22 -36 -18 -35 14 -28 37 31 104 117 135 135 161 140
207 5 38 2 46 -23 70 -21 18 -40 26 -66 26 -46 0 -81 -30 -183 -154 -70 -84
-92 -99 -114 -72 -12 14 4 37 122 175 95 111 161 134 243 86z m367 -270 c18
-13 15 -20 -51 -122 -38 -59 -90 -141 -115 -180 l-47 -73 -95 62 c-65 41 -95
66 -93 77 6 28 33 23 98 -20 l63 -43 21 27 c12 15 29 40 39 57 l18 30 -63 41
c-35 22 -63 44 -62 50 3 25 5 29 19 29 9 0 39 -16 68 -35 28 -19 56 -35 62
-34 5 0 31 34 57 75 26 40 51 74 55 74 5 0 16 -7 26 -15z"/>
<path d="M3401 6424 c-83 -70 -71 -253 20 -300 103 -53 202 46 186 186 -11 91
-58 140 -135 140 -29 0 -49 -7 -71 -26z"/>
<path d="M4321 6322 c-19 -38 -92 -285 -87 -297 7 -20 83 -38 130 -32 49 7 85
33 113 83 33 58 39 115 17 160 -23 46 -55 70 -117 89 -43 13 -48 12 -56 -3z"/>
<path d="M4762 6057 c-34 -34 -62 -65 -62 -69 0 -3 20 -18 45 -32 l46 -25 9
25 c6 14 10 40 10 58 0 18 5 47 11 65 6 18 9 34 7 36 -2 3 -32 -24 -66 -58z"/>
<path d="M2099 6083 c-39 -24 -50 -49 -50 -108 0 -64 25 -119 75 -162 92 -82
206 -33 206 88 0 139 -132 244 -231 182z"/>
<path d="M5111 5948 c-12 -12 -21 -25 -21 -29 0 -4 -11 -21 -25 -37 l-24 -29
22 -20 c38 -34 81 -47 109 -32 32 17 47 39 47 69 0 30 -13 48 -56 78 l-32 22
-20 -22z"/>
<path d="M5535 5529 c-33 -17 -70 -37 -82 -45 l-21 -13 36 -40 c20 -22 39 -38
43 -35 7 4 92 164 87 164 -2 -1 -30 -15 -63 -31z"/>
<path d="M818 4582 c-38 -23 -62 -76 -55 -121 4 -26 19 -47 50 -77 88 -80 212
-82 265 -4 49 73 9 163 -92 204 -51 21 -133 20 -168 -2z"/>
<path d="M684 3481 c-55 -25 -84 -64 -84 -113 0 -85 55 -131 159 -131 116 -1
190 59 178 145 -13 97 -144 148 -253 99z"/>
<path d="M916 2445 c-33 -30 -57 -57 -55 -59 2 -2 43 1 91 7 l87 12 -21 48
c-11 26 -26 47 -32 47 -6 -1 -38 -25 -70 -55z"/>
<path d="M1152 2197 c-19 -6 -55 -29 -80 -53 -45 -40 -47 -44 -47 -96 1 -41 8
-66 28 -101 16 -26 33 -47 39 -47 13 0 265 158 274 172 11 17 -51 92 -97 116
-47 24 -66 26 -117 9z"/>
</g>
</svg>
