<?xml version="1.0" standalone="no"?>
<!DOCTYPE svg PUBLIC "-//W3C//DTD SVG 20010904//EN"
 "http://www.w3.org/TR/2001/REC-SVG-20010904/DTD/svg10.dtd">
<svg version="1.0" xmlns="http://www.w3.org/2000/svg"
 width="450.000000pt" height="450.000000pt" viewBox="0 0 450.000000 450.000000"
 preserveAspectRatio="xMidYMid meet">
<metadata>
Created by potrace 1.14, written by Peter Selinger 2001-2017
</metadata>
<g transform="translate(0.000000,450.000000) scale(0.100000,-0.100000)"
fill="#000000" stroke="none">
<path d="M525 4484 c-128 -27 -249 -96 -351 -202 -87 -90 -146 -217 -164 -357
-5 -40 -9 -750 -10 -1675 0 -1695 0 -1684 45 -1810 23 -65 71 -147 124 -211
88 -106 283 -213 402 -220 13 -1 758 -4 1654 -6 1160 -2 1644 0 1680 8 28 6
61 13 74 15 115 23 292 128 349 207 18 26 38 52 45 59 32 33 58 93 91 214 l36
132 -3 1628 c-2 896 -6 1655 -10 1687 -10 89 -77 233 -144 306 -108 120 -195
173 -377 229 -11 4 -775 8 -1696 9 -1438 1 -1685 -1 -1745 -13z"/>
</g>
</svg>
